<svg id="b" xmlns="http://www.w3.org/2000/svg" width="231.902" height="245.402" viewBox="0 0 231.902 245.402"><!-- https://soco-st.com/20101 --><defs><style>.i{fill:#fcdc4a;}.i,.j,.k{stroke-width:0px;}.j{fill:#fff;}.k{fill:#211715;}</style></defs><g id="c"><g id="d"><g id="e"><path class="j" d="M2.023,186.73v-107.366c0-1.093.583-2.104,1.53-2.65L132.337,2.36c2.04-1.178,4.591.294,4.591,2.65v103.832c0,1.093.583,2.104,1.53,2.65l89.922,51.916c2.04,1.178,2.04,4.123,0,5.301l-128.784,74.353c-.947.547-2.114.547-3.06,0L3.554,189.38c-.947-.547-1.53-1.557-1.53-2.65Z"></path></g><path class="j" d="M157.95,127.049c-3.096,1.873-4.728,3.619-7.12,7.605-3.81,6.347-5.158,14.614-5.306,22.278-.041,2.105.225,4.836.62,6.905.933,4.817,3.915,8.071,8.661,10.91,2.906,1.741,6.964,2.45,9.779,3.369l.986.057,30.501-11.103,11.733-25.215c-3.584-8-9.069-15.573-15.671-20.615l-5.839-2.851-20.278,5.056-8.065,3.604Z"></path><path class="j" d="M180.726,85.167c-7.073-3.36-15.807-2.359-22.713,2.218-8.214,5.442-8.523,16.071-5.578,23.684-1.394.829-2.426,2.291-2.581,3.944-.225,2.386,1.173,4.896,3.185,6.307,2.131,1.494,5.063,2.203,7.563,1.917,6.121,4.328,14.853,4.742,21.396.982,2.01-1.155,3.8-2.677,5.301-4.441,7.095-8.34,6.968-21.939-.452-30.068-1.799-1.97-3.876-3.476-6.121-4.543Z"></path><path class="j" d="M220.105,226.863c.105-.171.193-.345.263-.52.81-2.03.25-4.34-1.38-6.15-1.54-1.72-3.37-3.02-5.42-4.73-.362-.211-.603-.473-.832-.78-.519.225-1.068.364-1.632.395-2.435.135-6.233.068-11.374.065-.382.905-.672,1.59-.672,1.59-.41.97-.08,2.9.39,3.98.72,1.64,1.97,3.26,3.59,4.4,2.36,1.65,4.75,3.16,7.47,4.18,1.02.38,3.14.66,5.33.49,1.437-.277,3.399-1.501,4.267-2.92Z"></path><path class="j" d="M200.952,234.726c.246-.282.464-.578.646-.883,1.27-2.16.36-4.42-1.15-6.43-1.573-2.094-3.407-3.548-5.591-5.062-3.616.764-10.628,1.609-15.021.338-.738,1.505-.778,3.405-.518,4.655.47,2.23,1.81,3.62,3.08,4.57,2.22,1.68,5.43,3.45,7.66,4.45,1.65.74,5.15.92,6.95.65,1.44-.217,2.932-1.127,3.944-2.287Z"></path><path class="j" d="M207.806,174.114c-7.712,4.459-18.492,10.63-23.619,13.673-.626.372-1.394.376-2.022.008-3.87-2.264-12.997-7.5-16.595-9.621l20.186-11.465c.383-3.794.721-7.147.721-7.147.064-.636.426-1.202.978-1.524,7.39-4.319,19.417-11.199,26.659-15.412,1.412-.821,3.155.306,2.99,1.931-.829,8.211-1.657,16.422-2.48,24.634-.064.634-.419,1.196-.968,1.519-1.523.897-3.55,2.074-5.85,3.404Z"></path><g id="f"><path class="i" d="M146.144,163.838c-.395-2.069-.661-4.799-.62-6.905.147-7.603,1.478-15.795,5.217-22.122l-16.203-9.355c-.309-.179-.691-.179-1,0l-104.801,60.507c-.667.385-.667,1.347,0,1.732l42.373,24.464c.309.179.691.179,1,0l75.79-43.758c-.829-1.363-1.428-2.862-1.758-4.564Z" style="fill: rgb(255, 136, 97);"></path><path class="i" d="M217.084,178.478c-1.14-2.21-2.94-4.08-5.04-5.43l-2.523.073c-.552.32-1.124.651-1.715.993-7.712,4.459-18.492,10.63-23.619,13.673-.626.372-1.394.376-2.022.008-3.87-2.264-12.997-7.5-16.594-9.621l-.986-.057c-2.815-.92-6.873-1.628-9.779-3.369-.019-.011-.035-.023-.054-.035l-1.867.054c.069,2.384.51,4.487,1.589,6.606,1.913,3.777,3.744,5.647,7.958,7.894,3.74,1.994,6.675,3.503,10.514,5.292,4.681,2.181,4.856,6.661,4.708,8.903-.409,6.194-.54,10.527-.695,15.249-.067,2.557,1.279,3.482,2.695,3.922,4.679,1.442,12.533.364,15.908-.441.461-.108.922-.5,1.246-.844.422-.441.991-1.167,1.069-1.776.202-1.695.369-3.126.52-4.432,5.822-.008,10.067.083,12.708-.064,2.569-.143,4.84-2.52,5.23-5.06,0,0,.29-1.98.31-2.1.84-6.54,1.26-12.28,1.68-19.25.2-3.46.33-7.11-1.24-10.19Z" style="fill: rgb(255, 136, 97);"></path></g></g><g id="g"><path class="k" d="M146.887,166.683c-5.712,3.298-11.424,6.596-17.137,9.893-11.233,6.485-22.466,12.97-33.699,19.456-7.899,4.56-15.797,9.12-23.696,13.68-.301.174-.649.327-.928.536-.047.035-.217.085-.239.138-.151.361,1-.157.936.046.028-.089-2.214-1.278-2.346-1.354l-13.699-7.907c-5.586-3.224-11.172-6.448-16.758-9.672l-6.315-3.645-2.027-1.17c-.319-.184-.743-.55-1.104-.637-.462-.111.358-1.031.358.782,0,2.743-.799.884-.417.816.151-.027.353-.204.484-.279l2.248-1.298c3.008-1.737,6.016-3.473,9.025-5.21,9.978-5.76,19.957-11.521,29.935-17.281,11.396-6.579,22.791-13.157,34.187-19.736,8.174-4.719,16.349-9.438,24.523-14.157l2.963-1.711c.335-.193,1.089-.448,1.326-.766.223-.297-1.09-.231-.957-.008.077.129.442.255.57.329l2.744,1.584c2.802,1.617,5.603,3.234,8.405,4.851,1.486.857,2.971,1.715,4.457,2.572,2.234,1.289,4.25-2.166,2.019-3.454-4.46-2.574-8.921-5.149-13.381-7.723-1.772-1.023-3.736-2.677-5.848-1.622-.392.196-.766.442-1.145.661-6.676,3.854-13.351,7.707-20.027,11.561-11.235,6.486-22.47,12.971-33.704,19.457-10.893,6.289-21.786,12.577-32.68,18.866-5.643,3.258-11.399,6.376-16.952,9.786-2.043,1.255-2.413,3.935-.269,5.364.846.564,1.781,1.028,2.662,1.536,4.739,2.735,9.478,5.471,14.218,8.206,5.666,3.27,11.332,6.54,16.997,9.81,2.809,1.621,5.58,3.449,8.485,4.897,2.324,1.158,5.098-1.194,7.05-2.321,4.006-2.313,8.011-4.625,12.017-6.938,11.393-6.577,22.785-13.155,34.178-19.732,8.104-4.679,16.207-9.357,24.311-14.036l1.248-.721c2.229-1.287.217-4.745-2.019-3.454h0Z"></path><path class="k" d="M137.593,219.979c-4.553-2.628-9.107-5.256-13.66-7.884-7.268-4.195-14.536-8.389-21.804-12.584-1.682-.971-3.364-1.942-5.046-2.912-2.234-1.289-4.25,2.166-2.019,3.454,4.553,2.628,9.107,5.256,13.66,7.884,7.268,4.195,14.536,8.389,21.804,12.584,1.682.971,3.364,1.942,5.046,2.912,2.234,1.289,4.25-2.166,2.019-3.454h0Z"></path><path class="k" d="M151.606,116.773c-3.976-2.296-8.104-4.431-11.967-6.91-1.197-.768-.712-3.175-.712-4.416,0-9.151,0-18.303,0-27.454s0-25.595,0-38.392c0-9.813,0-19.625,0-29.438,0-1.707.065-3.428,0-5.134-.148-3.912-4.147-6.225-7.612-4.39-.304.161-.597.345-.895.517-5.268,3.042-10.536,6.083-15.804,9.125-9.63,5.56-19.259,11.119-28.889,16.679-11.234,6.486-22.468,12.972-33.702,19.457-9.96,5.75-19.92,11.501-29.88,17.251-5.922,3.419-11.843,6.838-17.765,10.256-2.199,1.27-4.237,2.443-4.353,5.442-.06,1.544,0,3.103,0,4.648v96.785c0,1.927-.058,3.864,0,5.791.089,2.978,2.025,4.23,4.236,5.507,7.082,4.089,14.164,8.177,21.245,12.266,10.995,6.348,21.99,12.695,32.984,19.043l28.446,16.423,7.404,4.275c.391.226.777.468,1.176.679,2.125,1.123,4.086.583,5.994-.519,9.428-5.443,18.856-10.886,28.284-16.329,2.596-1.499,5.193-2.998,7.789-4.497l-1.009.273c.701,0,1.308-.439,1.891-.777l2.782-1.606,9.606-5.547c7.304-4.218,14.609-8.435,21.913-12.653l5.128-2.961c2.229-1.287.217-4.745-2.019-3.454-4.522,2.611-9.044,5.222-13.567,7.834-7.252,4.187-14.503,8.374-21.755,12.562l-4.979,2.875,1.009-.273c-1.005,0-2.166.935-2.993,1.412l-5.636,3.254c-5.368,3.099-10.736,6.198-16.104,9.297-4.069,2.349-8.138,4.698-12.207,7.048-.699.403-1.323.948-2.154.58-.488-.216-.953-.55-1.414-.817-6.819-3.937-13.639-7.874-20.458-11.811-10.808-6.239-21.615-12.479-32.423-18.718l-28.823-16.64c-2.698-1.557-5.395-3.115-8.093-4.672-.988-.57-2.239-.965-2.255-2.248-.079-6.493,0-12.992,0-19.485,0-12.121,0-24.241,0-36.362s0-23.467,0-35.201v-11.55c0-1.429-.197-3.017,0-4.437.156-1.127,2.042-1.792,2.916-2.296,2.434-1.406,4.869-2.811,7.303-4.217,8.408-4.854,16.816-9.708,25.223-14.563,10.874-6.278,21.748-12.556,32.622-18.834,10.651-6.149,21.302-12.299,31.954-18.448,7.65-4.417,15.3-8.833,22.949-13.25l5.524-3.189c.268-.155.539-.353.823-.475,1.082-.466,1.589.41,1.585,1.335-.03,6.757,0,13.515,0,20.272,0,12.281,0,24.562,0,36.843s0,22.749,0,34.124v9.891c0,.694-.013,1.389,0,2.083.04,2.18,1.136,3.779,2.985,4.847,3.892,2.247,7.784,4.495,11.675,6.742,2.233,1.29,4.25-2.166,2.019-3.454h0Z"></path><path class="k" d="M214.927,157.947c3.933,2.273,7.865,4.546,11.798,6.819.677.391,1.102.577,1.2,1.256-.013-.088-.07.403-.101.467-.121.25-.207.322-.458.494-.14.096-.298.172-.445.257l-6.496,3.751c-1.97,1.137-3.939,2.275-5.909,3.412-2.229,1.287-.217,4.745,2.019,3.454,4.146-2.394,8.293-4.788,12.439-7.183,1.299-.75,2.36-1.79,2.757-3.289.599-2.264-.429-4.503-2.374-5.718-1.934-1.209-3.961-2.289-5.936-3.431-2.159-1.248-4.318-2.496-6.477-3.743-2.233-1.291-4.249,2.165-2.019,3.454h0Z"></path><g id="h"><path class="k" d="M135.073,109.911c-4.413,2.548-8.826,5.096-13.239,7.644-10.594,6.117-21.189,12.233-31.783,18.35-12.774,7.375-25.549,14.75-38.323,22.126-11.043,6.376-22.086,12.751-33.129,19.127-5.371,3.101-10.873,6.05-16.144,9.321-.073.045-.149.086-.224.129-2.229,1.287-.217,4.745,2.019,3.454,4.413-2.548,8.826-5.096,13.239-7.644,10.594-6.117,21.189-12.233,31.783-18.35,12.774-7.375,25.549-14.75,38.323-22.126,11.043-6.376,22.086-12.751,33.129-19.127,5.371-3.101,10.873-6.05,16.144-9.321.073-.045.149-.086.224-.129,2.229-1.287.217-4.745-2.019-3.454h0Z"></path></g><path class="k" d="M194.109,224.259c1.44,1.016,2.812,2.11,3.99,3.427.97,1.085,2.282,2.677,2.098,4.25-.167,1.432-1.795,2.643-3.087,3.009-1.118.317-2.762.231-4.102.078-3.051-.348-5.98-2.339-8.467-4.028-1.166-.792-2.324-1.67-2.923-2.99-.589-1.299-.643-3.002-.053-4.314.443-.984.284-2.151-.718-2.736-.855-.5-2.291-.273-2.736.718-1.579,3.511-1.102,7.547,1.514,10.432,2.294,2.53,5.823,4.297,8.87,5.73,2.732,1.285,6.069,1.615,9.044,1.106,3.713-.635,7.097-4.245,6.585-8.12-.577-4.375-4.628-7.638-7.998-10.016-.883-.623-2.224-.158-2.736.718-.585,1-.168,2.112.718,2.736h0Z"></path><path class="k" d="M211.324,216.097c1.079,1.368,2.83,2.363,4.156,3.499,1.139.975,2.451,2.054,3.003,3.491.489,1.274.279,2.528-.709,3.46-1.103,1.04-2.262,1.319-3.743,1.279-3.35-.09-6.19-1.873-8.903-3.698-1.341-.902-2.521-1.874-3.359-3.276-.611-1.022-1.173-2.458-.783-3.587.843-2.438-3.019-3.485-3.857-1.063-1.076,3.11.846,6.748,2.924,8.96,1.226,1.304,2.799,2.287,4.304,3.236,1.569.989,3.201,1.843,4.917,2.548,2.975,1.221,6.875,1.409,9.676-.31,3.005-1.845,4.559-5.158,3.389-8.611-.652-1.927-1.991-3.437-3.481-4.775-.793-.712-1.629-1.375-2.458-2.043-.756-.609-1.646-1.173-2.248-1.937-.67-.849-2.128-.701-2.828,0-.838.838-.671,1.978,0,2.828h0Z"></path><path class="k" d="M193.228,138.528v14.712c0,2.574,4,2.578,4,0v-14.712c0-2.574-4-2.578-4,0h0Z"></path><path class="k" d="M211.034,174.775c3.206,2.119,5.127,5.236,5.363,9.089.255,4.171-.278,8.462-.598,12.62-.287,3.738-.617,7.582-1.135,11.236-.333,2.352-.913,5.111-3.793,5.371-3.816.344-7.757.054-11.582.052-2.574-.001-2.578,3.999,0,4,3.85.002,7.737.178,11.582-.052,3.867-.232,6.881-3.198,7.456-6.991.597-3.934,1.001-7.898,1.331-11.863.394-4.725,1.024-9.63.738-14.372-.322-5.327-2.908-9.611-7.345-12.543-2.154-1.423-4.159,2.039-2.019,3.454h0Z"></path><path class="k" d="M150.887,174.77c.177,4.469,1.835,8.777,4.869,12.099,2.931,3.209,7.272,5.027,11.079,6.946,1.123.566,2.253,1.121,3.388,1.663,1.077.515,2.262.947,3.21,1.688,1.589,1.241,2.218,3.195,2.252,5.155.039,2.303-.25,4.635-.363,6.936-.106,2.167-.19,4.335-.265,6.503-.072,2.071-.427,4.388.656,6.271.919,1.597,2.597,2.377,4.325,2.771,4.014.916,8.277.573,12.313.002,1.66-.235,3.713-.361,5.099-1.377.829-.607,1.554-1.45,2.005-2.373.513-1.049.517-2.279.651-3.424.414-3.529.805-7.061,1.196-10.592.5-4.519,1.067-9.034,1.319-13.576.094-1.691.205-3.42-.02-5.105-.363-2.716-1.805-5.137-4.044-6.704-2.114-1.479-4.115,1.987-2.019,3.454.786.55,1.343,1.389,1.7,2.27.192.474.32.975.421,1.475.069.34.006.008-.002-.055.019.166.028.333.037.5.085,1.496-.005,3.009-.093,4.503-.214,3.628-.633,7.234-1.034,10.845-.358,3.222-.709,6.444-1.076,9.664-.086.753-.173,1.506-.26,2.259-.091.78-.024,1.903-.3,2.628-.537,1.413-2.422,1.406-3.681,1.607-3.392.543-7.101.884-10.504.273-1.111-.199-2.495-.325-2.747-1.584-.166-.83-.008-1.783.021-2.629.033-.983.067-1.967.104-2.95.073-1.969.159-3.937.263-5.905.112-2.123.431-4.311.263-6.435-.159-2.014-.718-3.988-1.921-5.633-1.321-1.807-3.087-2.775-5.068-3.716-2.269-1.077-4.512-2.205-6.737-3.37-1.949-1.02-4.01-1.982-5.756-3.339-3.269-2.54-5.119-6.669-5.281-10.745-.101-2.565-4.102-2.578-4,0h0Z"></path><path class="k" d="M165.116,176.189c-1.922-.613-3.894-1.054-5.815-1.671s-3.638-1.508-5.299-2.665c-2.891-2.014-5.097-4.707-5.857-8.197-.914-4.201-.702-8.621-.23-12.864.478-4.294,1.452-8.693,3.304-12.616,1.789-3.788,4.133-7.188,7.74-9.399,2.191-1.343.184-4.804-2.019-3.454-7.844,4.81-11.444,14.291-12.71,23.024-.717,4.947-.968,9.917-.211,14.873.64,4.196,2.67,7.823,5.938,10.546,2.047,1.705,4.28,3.115,6.767,4.079,2.383.924,4.898,1.426,7.328,2.202,2.458.784,3.51-3.076,1.063-3.857h0Z"></path><path class="k" d="M159.811,148.883c-.753,3.874-1.11,7.836-1.46,11.763-.093,1.045.986,2.045,2,2,1.163-.052,1.9-.881,2-2,.186-2.09.39-4.178.642-6.261.054-.448.11-.895.17-1.342-.066.497.032-.224.045-.311.027-.188.054-.376.083-.564.112-.743.235-1.484.378-2.222.199-1.024-.288-2.208-1.397-2.46-.989-.225-2.247.299-2.46,1.397h0Z"></path><path class="k" d="M164.561,179.901c4.09,2.409,8.212,4.765,12.322,7.141.943.545,1.886,1.091,2.828,1.639,1.086.631,2.155,1.39,3.466,1.388,2.007-.003,4.205-1.844,5.888-2.824,8.393-4.887,16.941-9.545,25.237-14.594,1.147-.698,1.994-1.571,2.251-2.929.367-1.935.418-3.991.615-5.951.38-3.777.76-7.554,1.141-11.331.182-1.806.364-3.613.547-5.419.168-1.669.582-3.38-.413-4.878-.748-1.126-2.099-1.849-3.46-1.787-1.412.064-2.603.965-3.783,1.649-5.045,2.923-10.101,5.827-15.152,8.74-2.46,1.419-4.918,2.839-7.373,4.266-2.037,1.184-3.919,2.088-4.209,4.661-.664,5.883-1.189,11.786-1.783,17.677-.109,1.076.997,2,2,2,1.172,0,1.891-.921,2-2,.523-5.181,1.045-10.362,1.568-15.543.066-.653-.012-1.584.222-2.204-.031.082.06.137-.009.162.518-.193,1.03-.601,1.509-.88,1.05-.611,2.102-1.221,3.153-1.831,4.721-2.734,9.45-5.453,14.176-8.178,2.161-1.246,4.321-2.492,6.479-3.744.446-.259.91-.499,1.342-.779.02-.013-.005.037.005-.033-.172,1.225-.321,3.179-.472,4.671-.348,3.449-.696,6.897-1.043,10.346-.174,1.724-.347,3.449-.52,5.173-.082.821-.165,1.642-.247,2.463-.051.511.065,1.675-.251,2.084-.13.168-1.396.774-1.83,1.027-.824.48-1.649.959-2.475,1.438-1.941,1.125-3.885,2.246-5.829,3.366-4.177,2.407-8.357,4.81-12.529,7.226-1.939,1.123-3.878,2.248-5.809,3.386-.192.113-.734.556-.948.568-.242.013-.791-.461-1.001-.582-.952-.554-1.905-1.106-2.859-1.657-4.248-2.457-8.509-4.891-12.738-7.382-2.223-1.309-4.238,2.147-2.019,3.454h0Z"></path><path class="k" d="M154.12,109.879c-2.029-5.842-2.215-13.229,2.029-18.192,4.456-5.21,12.664-7.48,19.277-6.165,7.124,1.417,12.499,6.796,14.354,13.763,1.793,6.734.345,14.49-4.437,19.69-6.084,6.617-16.28,7.64-23.668,2.576-2.129-1.459-4.132,2.006-2.019,3.454,7.67,5.256,18.458,4.982,25.798-.728,6.896-5.364,9.96-14.323,8.804-22.862s-6.602-15.962-14.779-18.919c-7.897-2.856-17.382-.952-23.91,4.215-7.221,5.716-8.165,16.004-5.307,24.231.839,2.417,4.705,1.377,3.857-1.063h0Z"></path><path class="k" d="M153.923,108.44c-2.153.291-4.165,1.777-5.206,3.669-1.145,2.083-1.099,4.505-.188,6.663,1.867,4.424,6.839,6.701,11.469,6.514,1.044-.042,2.05-.89,2-2-.047-1.047-.88-2.045-2-2-.446.018-.891.015-1.337-.019-.073-.006-.724-.087-.408-.038-.21-.033-.419-.072-.626-.116-.417-.089-.83-.2-1.236-.333-.203-.066-.403-.139-.602-.215-.378-.146.029.037-.301-.135-.404-.21-.802-.415-1.184-.664-.065-.042-.572-.425-.316-.214-.151-.125-.298-.255-.439-.392s-.279-.279-.41-.425c-.006-.006-.383-.479-.183-.209-.253-.342-.475-.71-.666-1.09-.045-.087-.087-.175-.127-.264.061.149.066.159.015.028-.079-.212-.15-.426-.208-.644-.05-.185-.09-.373-.124-.562.063.35-.007-.118-.011-.224-.008-.191,0-.377.004-.568.008-.467-.087.202.027-.2.049-.174.097-.35.144-.525.082-.218.082-.227-.001-.026.037-.082.078-.163.121-.242.084-.16.177-.315.277-.465.049-.076.101-.15.155-.222-.127.168-.116.163.031-.013.13-.123.26-.254.384-.382.351-.366-.262.143.161-.135.151-.099.301-.197.459-.285.1-.055.498-.231.173-.103.392-.154.8-.247,1.217-.304,1.041-.141,1.699-1.528,1.397-2.46-.37-1.145-1.345-1.548-2.46-1.397h0Z"></path><path class="k" d="M180.181,110.559c.011.145.13,1.598,1.26,2.364.741.502,1.471.366,1.7.319.177-.036,1.324-.294,1.826-1.526.476-1.167.21-2.811-.832-3.702-1.08-.923-2.471-.642-3.24.237-.693.792-.757,1.569-.715,2.309Z"></path><path class="k" d="M167.894,113.859c.011.145.13,1.598,1.335,2.357.79.498,1.572.357,1.818.309.189-.037,1.419-.303,1.964-1.538.516-1.171.241-2.814-.868-3.699-1.15-.917-2.641-.628-3.469.256-.746.796-.819,1.575-.779,2.315Z"></path><path class="k" d="M179.716,167.698c-2.206-3.152-6.034-4.603-9.802-4.015-3.987.622-6.223,4.314-7.298,7.9-.313,1.044-.489,2.123-.602,3.206-.108,1.028-.211,2.124.314,3.065.81,1.454,2.955,2.345,4.419,2.928,1.977.788,4.241,1.152,6.346.763,2.014-.372,3.999-1.74,5.379-3.214,2.708-2.892,3.487-7.222,1.246-10.634-.592-.902-1.769-1.283-2.736-.718-.896.524-1.313,1.83-.718,2.736.158.241.293.49.431.742.058.107.169.439.018.019.053.146.107.291.153.439.076.248.112.505.18.754-.107-.395-.018-.2-.01-.068.012.21.029.417.027.627-.001.132-.013.264-.017.396-.004.127-.081.475.006.026-.052.269-.106.536-.185.799-.048.162-.106.319-.164.478.13-.356.037-.079-.002-.003-.166.319-.331.634-.532.933-.015.022-.381.503-.136.201-.103.127-.21.249-.321.37-.256.279-.534.53-.812.785-.372.341-1.212.884-1.873,1.189.242-.112-.152.059-.211.079-.161.055-.323.103-.489.143-.024.006-.661.1-.264.061-.137.014-.275.02-.413.025-.863.026-1.424-.068-2.258-.276-1.411-.352-2.221-.722-3.481-1.564-.163-.109-.329-.261-.503-.352l.376.315c.112.597.16.732.141.406.019-.062.009-.191.01-.25.027-.923.086-1.447.263-2.264.355-1.645.829-2.769,1.713-4.174.079-.125.159-.249.241-.372.019-.029.451-.613.15-.242.181-.223.386-.415.593-.612.37-.352-.314.157.129-.092.097-.054.188-.12.285-.175.145-.083.295-.157.446-.229-.403.19.05-.01.149-.042.325-.106.656-.179.992-.238-.482.085.076,0,.154-.006.174-.011.348-.017.522-.017.175,0,.35.006.525.018.15.01.528.058.168.004.349.052.694.126,1.034.22.169.047.337.099.503.156.11.038.22.078.328.12-.182-.081-.208-.091-.077-.033.312.143.616.302.908.483.12.074.234.155.352.232.318.208-.178-.187.18.151.322.304.617.61.774.834.619.884,1.75,1.294,2.736.718.875-.512,1.34-1.847.718-2.736Z"></path><path class="k" d="M191.123,122.968c6.626,5.106,11.54,12.336,14.953,19.897.444.985,1.874,1.222,2.736.718,1.013-.592,1.164-1.748.718-2.736-3.724-8.248-9.192-15.788-16.388-21.332-.856-.66-2.24-.131-2.736.718-.604,1.032-.141,2.075.718,2.736h0Z"></path><path class="k" d="M189.017,97.225c-2.235,1.78-6.349-.205-8.593-1.039-3.22-1.197-5.678.065-8.199,2.065-.985.781-1.907,1.647-2.96,2.339-1.392.914-2.84,1.755-4.291,2.57-3.037,1.705-6.173,3.225-9.438,4.44-2.392.89-1.357,4.757,1.063,3.857,6.377-2.372,12.596-5.573,17.863-9.898.857-.704,1.979-1.757,3.126-1.919.659-.093,1.364.252,1.972.479.804.301,1.607.585,2.427.839,3.405,1.056,6.913,1.444,9.86-.903.846-.673.703-2.125,0-2.828-.835-.835-1.981-.675-2.828,0h0Z"></path></g></g></svg>